<mxfile host="app.diagrams.net" modified="2021-03-30T19:30:04.175Z" agent="5.0 (Macintosh; Intel Mac OS X 10_15_7) AppleWebKit/537.36 (KHTML, like Gecko) Chrome/89.0.4389.90 Safari/537.36" etag="9DR5nuK8mWuzk4Ko7r6-" version="14.5.1" type="github">
  <diagram id="RgI2O9g0Px20aBci9G75" name="Page-1">
    <mxGraphModel dx="1892" dy="976" grid="1" gridSize="10" guides="1" tooltips="1" connect="1" arrows="1" fold="1" page="1" pageScale="1" pageWidth="850" pageHeight="1100" math="0" shadow="0">
      <root>
        <mxCell id="0" />
        <mxCell id="1" parent="0" />
        <mxCell id="mYDpYOOq0IwD1ZCfA3nS-3" value="" style="edgeStyle=orthogonalEdgeStyle;rounded=0;orthogonalLoop=1;jettySize=auto;html=1;" edge="1" parent="1" source="mYDpYOOq0IwD1ZCfA3nS-1" target="mYDpYOOq0IwD1ZCfA3nS-2">
          <mxGeometry relative="1" as="geometry" />
        </mxCell>
        <mxCell id="mYDpYOOq0IwD1ZCfA3nS-1" value="Start" style="strokeWidth=2;html=1;shape=mxgraph.flowchart.start_1;whiteSpace=wrap;" vertex="1" parent="1">
          <mxGeometry x="390" y="20" width="100" height="60" as="geometry" />
        </mxCell>
        <mxCell id="mYDpYOOq0IwD1ZCfA3nS-5" value="" style="edgeStyle=orthogonalEdgeStyle;rounded=0;orthogonalLoop=1;jettySize=auto;html=1;" edge="1" parent="1" source="mYDpYOOq0IwD1ZCfA3nS-2" target="mYDpYOOq0IwD1ZCfA3nS-4">
          <mxGeometry relative="1" as="geometry" />
        </mxCell>
        <mxCell id="mYDpYOOq0IwD1ZCfA3nS-2" value="Roll at 0 degrees at 26 speed for 13 seconds" style="rounded=1;whiteSpace=wrap;html=1;absoluteArcSize=1;arcSize=14;strokeWidth=2;" vertex="1" parent="1">
          <mxGeometry x="390" y="140" width="100" height="100" as="geometry" />
        </mxCell>
        <mxCell id="mYDpYOOq0IwD1ZCfA3nS-7" value="" style="edgeStyle=orthogonalEdgeStyle;rounded=0;orthogonalLoop=1;jettySize=auto;html=1;" edge="1" parent="1" source="mYDpYOOq0IwD1ZCfA3nS-4" target="mYDpYOOq0IwD1ZCfA3nS-6">
          <mxGeometry relative="1" as="geometry" />
        </mxCell>
        <mxCell id="mYDpYOOq0IwD1ZCfA3nS-4" value="Roll at 90 degrees at 26 speed for 23 seconds" style="rounded=1;whiteSpace=wrap;html=1;absoluteArcSize=1;arcSize=14;strokeWidth=2;" vertex="1" parent="1">
          <mxGeometry x="390" y="290" width="100" height="100" as="geometry" />
        </mxCell>
        <mxCell id="mYDpYOOq0IwD1ZCfA3nS-9" value="" style="edgeStyle=orthogonalEdgeStyle;rounded=0;orthogonalLoop=1;jettySize=auto;html=1;" edge="1" parent="1" source="mYDpYOOq0IwD1ZCfA3nS-6" target="mYDpYOOq0IwD1ZCfA3nS-8">
          <mxGeometry relative="1" as="geometry" />
        </mxCell>
        <mxCell id="mYDpYOOq0IwD1ZCfA3nS-6" value="Roll at 180 degrees at 26 speed for 13 seconds" style="rounded=1;whiteSpace=wrap;html=1;absoluteArcSize=1;arcSize=14;strokeWidth=2;" vertex="1" parent="1">
          <mxGeometry x="390" y="460" width="100" height="100" as="geometry" />
        </mxCell>
        <mxCell id="mYDpYOOq0IwD1ZCfA3nS-11" value="" style="edgeStyle=orthogonalEdgeStyle;rounded=0;orthogonalLoop=1;jettySize=auto;html=1;" edge="1" parent="1" source="mYDpYOOq0IwD1ZCfA3nS-8" target="mYDpYOOq0IwD1ZCfA3nS-10">
          <mxGeometry relative="1" as="geometry" />
        </mxCell>
        <mxCell id="mYDpYOOq0IwD1ZCfA3nS-8" value="Roll at 270 degrees at 26 for 24 seconds" style="rounded=1;whiteSpace=wrap;html=1;absoluteArcSize=1;arcSize=14;strokeWidth=2;" vertex="1" parent="1">
          <mxGeometry x="390" y="610" width="100" height="100" as="geometry" />
        </mxCell>
        <mxCell id="mYDpYOOq0IwD1ZCfA3nS-10" value="Stop" style="rounded=1;whiteSpace=wrap;html=1;absoluteArcSize=1;arcSize=14;strokeWidth=2;" vertex="1" parent="1">
          <mxGeometry x="390" y="770" width="100" height="100" as="geometry" />
        </mxCell>
      </root>
    </mxGraphModel>
  </diagram>
</mxfile>
